# xmcd CD database file generated by Grip 3.2.0
# 
# Track frame offsets:
#       183
#       15955
#       26778
#       38408
#       53460
#       67900
#       83433
#       96235
#       107388
#       120640
#       133213
#       145555
#       158063
#       169743
# 
# Disc length: 2432 seconds
# 
# Revision: 5
# Processed by: cddbd v1.5.2PL0 Copyright (c) Steve Scherf et al.
# Submitted via: Grip 3.2.0
# 
DISCID=9b097e0e
DTITLE=Palast Orchester (Gesang Max Raabe) - Kleines Fräulein, einen Augenbl
DTITLE=ick (Folge 2)
DYEAR=1989
DGENRE=Oldies
TTITLE0=Kleines Fräulein, einen Augenbick
TTITLE1=Was will der Mann da auf der Veranda?
TTITLE2=Ich laß mir meinen Körper schwarz bepinseln
TTITLE3=Eva
TTITLE4=Tausendmal war ich im traum bei dir
TTITLE5=Unter einem Regenschirm Am Abend
TTITLE6=An einem Tag im Frühling
TTITLE7=Die ganze Welt ist Himmelblau
TTITLE8=Eine Nacht in Monte Carlo
TTITLE9=Was bin ich ohne dich
TTITLE10=Was macht der Maier auf dem Himalaya
TTITLE11=Liebling, wie ist dein Name, die Adresse und dein Telefon?
TTITLE12=Wenn die Sonne hinter den Dächern versinkt
TTITLE13=Wenn ein junger Mann kommt
EXTD=
EXTT0=
EXTT1=
EXTT2=
EXTT3=
EXTT4=
EXTT5=
EXTT6=
EXTT7=
EXTT8=
EXTT9=
EXTT10=
EXTT11=
EXTT12=
EXTT13=
PLAYORDER=
